<svg width="25" height="25" viewBox="0 0 25 25" fill="none" xmlns="http://www.w3.org/2000/svg">
<path d="M21.7711 8.9806L15.2211 3.7406C13.9411 2.7206 11.9411 2.7106 10.6711 3.7306L4.12113 8.9806C3.18113 9.7306 2.61113 11.2306 2.81113 12.4106L4.07113 19.9506C4.36113 21.6406 5.93112 22.9706 7.64112 22.9706H18.2411C19.9311 22.9706 21.5311 21.6106 21.8211 19.9406L23.0811 12.4006C23.2611 11.2306 22.6911 9.7306 21.7711 8.9806ZM13.6911 18.9706C13.6911 19.3806 13.3511 19.7206 12.9411 19.7206C12.5311 19.7206 12.1911 19.3806 12.1911 18.9706V15.9706C12.1911 15.5606 12.5311 15.2206 12.9411 15.2206C13.3511 15.2206 13.6911 15.5606 13.6911 15.9706V18.9706Z" fill="#171717"/>
</svg>
