<svg width="24" height="25" viewBox="0 0 24 25" fill="none" xmlns="http://www.w3.org/2000/svg">
<path d="M8.93 2.5H5.02C3 2.5 2 3.5 2 5.52V9.44C2 11.5 3 12.5 5.02 12.45H8.94C11 12.5 12 11.5 11.95 9.43V5.52C12 3.5 11 2.5 8.93 2.5ZM9.01 10.26C8.33 10.26 7.67 10 7.12 9.54C6.5 9.99 5.75 10.26 4.94 10.26C4.53 10.26 4.19 9.92 4.19 9.51C4.19 9.1 4.53 8.76 4.94 8.76C5.96 8.76 6.81 8.06 7.12 7.1H4.94C4.53 7.1 4.19 6.76 4.19 6.35C4.19 5.94 4.53 5.6 4.94 5.6H6.23C6.27 5.22 6.58 4.92 6.97 4.92C7.36 4.92 7.67 5.22 7.71 5.6H7.97C7.98 5.6 7.99 5.6 7.99 5.6H8.01H9C9.41 5.6 9.75 5.94 9.75 6.35C9.75 6.76 9.42 7.1 9 7.1H8.67C8.58 7.58 8.39 8.03 8.14 8.44C8.41 8.64 8.7 8.76 9.01 8.76C9.42 8.76 9.76 9.1 9.76 9.51C9.76 9.92 9.42 10.26 9.01 10.26Z" fill="black"/>
<path d="M9 23.25C4.73 23.25 1.25 19.77 1.25 15.5C1.25 15.09 1.59 14.75 2 14.75C2.41 14.75 2.75 15.09 2.75 15.5C2.75 18.46 4.81 20.94 7.58 21.59L7.31 21.14C7.1 20.78 7.21 20.32 7.57 20.11C7.92 19.9 8.39 20.01 8.6 20.37L9.65 22.12C9.79 22.35 9.79 22.64 9.66 22.87C9.52 23.1 9.27 23.25 9 23.25Z" fill="black"/>
<path d="M22 10.25C21.59 10.25 21.25 9.91 21.25 9.5C21.25 6.54 19.19 4.06 16.42 3.41L16.69 3.86C16.9 4.22 16.79 4.68 16.43 4.89C16.08 5.1 15.61 4.99 15.4 4.63L14.35 2.88C14.21 2.65 14.21 2.36 14.34 2.13C14.48 1.9 14.73 1.75 15 1.75C19.27 1.75 22.75 5.23 22.75 9.5C22.75 9.91 22.41 10.25 22 10.25Z" fill="black"/>
<path d="M16.92 12.35C14.12 12.35 11.84 14.62 11.84 17.43C11.84 20.23 14.11 22.51 16.92 22.51C19.72 22.51 22 20.24 22 17.43C22 14.62 19.73 12.35 16.92 12.35ZM19.4 19.84C19.03 20.02 18.58 19.88 18.39 19.5L18.22 19.16H15.63L15.46 19.5C15.33 19.76 15.06 19.91 14.79 19.91C14.68 19.91 14.56 19.88 14.46 19.83C14.09 19.64 13.94 19.19 14.12 18.82L16.26 14.55C16.39 14.3 16.65 14.14 16.93 14.14C17.21 14.14 17.47 14.3 17.6 14.56L19.74 18.83C19.92 19.2 19.77 19.65 19.4 19.84Z" fill="black"/>
<path d="M16.38 17.66H17.47L16.92 16.57L16.38 17.66Z" fill="black"/>
</svg>
